<svg width="242" height="57" viewBox="0 0 242 57" fill="none" xmlns="http://www.w3.org/2000/svg">
<path fill-rule="evenodd" clip-rule="evenodd" d="M81.3349 42.3896C80.3124 41.4559 79.5569 40.2457 79.0681 38.7589C78.1272 41.2336 77.2283 43.314 76.3713 44.9998C74.4023 48.8575 72.5193 50.8654 70.7223 51.0235C70.2322 51.0667 69.7261 50.9249 69.2038 50.5983C68.6816 50.2717 68.217 49.8986 67.8102 49.479C67.4441 49.0559 66.999 48.4327 66.4747 47.6095C65.9877 46.7416 65.5985 46.0514 65.307 45.5389C65.0119 44.9853 64.6137 44.1924 64.1124 43.1602C63.5631 42.0494 63.1907 41.3163 62.9952 40.9609C62.4531 39.9323 61.7736 39.4539 60.9568 39.5258C60.6433 41.1265 60.3388 42.8299 60.0432 44.636C60.0825 45.0879 59.9362 45.5355 59.6044 45.9787C59.1572 46.5148 58.6495 46.8286 58.0813 46.92L58.02 46.9254C57.0399 47.0116 56.3479 46.3895 55.9441 45.0589C55.2459 42.8304 54.6901 40.5258 54.2767 38.1451C53.1543 40.3879 52.1839 42.1437 51.3656 43.4127C51.3283 43.4573 51.3115 43.5002 51.315 43.5413L51.1979 43.6137L51.2032 43.6753L51.142 43.6807C49.3215 46.4076 47.6149 47.8411 46.0221 47.9813C44.5518 48.1107 43.3139 47.5987 42.3082 46.4452C41.299 45.2507 40.5815 43.3889 40.1557 40.8597C39.8703 41.837 39.5574 42.7339 39.2169 43.5504C37.7093 47.0363 35.7303 48.887 33.2799 49.1027C31.8914 49.2249 30.6143 48.737 29.4489 47.6391C28.6898 46.8955 28.1372 45.832 27.7912 44.4486C27.5828 45.6268 27.4223 46.5461 27.3096 47.2064L27.1288 47.9675C26.8419 49.4002 26.5353 50.607 26.2091 51.5879C25.8829 52.5687 25.4217 53.4166 24.8254 54.1314C24.2664 54.8016 23.6193 55.169 22.8842 55.2337C20.9238 55.4062 19.0345 53.7924 17.2161 50.3923C15.3942 46.951 14.2331 42.3546 13.7329 36.603C13.0576 28.8383 13.9692 19.9197 16.4677 9.84718C11.4055 10.7895 7.50627 13.0369 4.76993 16.5895C1.89525 20.4441 0.905847 24.9193 1.80172 30.0152C1.86043 30.217 1.81525 30.4073 1.66618 30.586C1.55795 30.7611 1.40173 30.8576 1.19753 30.8756L1.13627 30.881C0.727869 30.9169 0.463176 30.7125 0.342192 30.2678C-0.630254 24.7647 0.469933 19.9072 3.64275 15.6952C6.70735 11.6583 11.1232 9.1998 16.8904 8.31966C17.165 7.21915 17.4318 6.26423 17.6906 5.4549C17.9832 4.55981 18.6159 4.02805 19.5889 3.85962C20.4803 3.69838 21.1774 3.90611 21.6802 4.48282C22.0978 5.02563 22.1736 5.66062 21.9076 6.38779C21.7019 6.86127 21.5201 7.37404 21.3624 7.92609C22.4314 7.9148 24.2835 7.91739 26.9187 7.93385C29.1419 7.94518 30.8697 7.93801 32.1021 7.91234C33.3344 7.88668 34.9752 7.82507 37.0244 7.72752C39.1144 7.62638 40.787 7.45848 42.0424 7.2238C43.2977 6.98913 44.5645 6.64995 45.8428 6.20627C47.1619 5.75899 48.1623 5.19489 48.8438 4.51394C49.1828 4.15293 49.5131 4.16526 49.8347 4.55093C50.1936 4.89192 50.2017 5.22238 49.8592 5.54231C48.9132 6.49491 47.6209 7.25031 45.9822 7.80851C44.3843 8.36311 42.3397 8.75004 39.8484 8.96929C37.398 9.18495 35.3524 9.32358 33.7117 9.38519C32.0674 9.40571 29.7829 9.39978 26.8582 9.36739C24.1005 9.36171 22.1072 9.39224 20.8784 9.45899C19.838 13.1107 19.0198 17.426 18.424 22.4047C17.8246 27.3424 17.7108 31.9475 18.0823 36.2202C18.3682 39.5068 18.9113 42.4396 19.7118 45.0186C20.5531 47.594 21.3504 49.4281 22.1039 50.521C22.8574 51.6138 23.4792 52.1386 23.9693 52.0955C24.2108 52.0328 24.4831 51.6156 24.7864 50.8438C25.1269 50.0272 25.4123 49.05 25.6425 47.912C25.8835 46.8972 26.165 45.4028 26.4872 43.4288C26.866 41.16 27.1741 39.4977 27.4115 38.4419C27.5857 37.7787 27.7856 37.2268 28.0114 36.7862C28.4389 35.4096 29.0833 34.0656 29.9445 32.7545C31.9477 29.7631 34.0929 28.1668 36.3799 27.9655C37.9727 27.8253 39.2319 28.1078 40.1574 28.8129C40.2427 28.8468 40.3297 28.9012 40.4185 28.9762L40.4798 28.9708C40.5293 28.5939 40.7085 28.2883 41.0173 28.0542C41.3635 27.7753 41.7185 27.5992 42.0825 27.5257C42.4873 27.4487 42.8771 27.4351 43.2518 27.4849C43.8379 27.5989 44.2953 27.8899 44.624 28.3577C44.9936 28.8219 45.1067 29.4123 44.9633 30.1286C44.6942 31.7668 44.5175 33.5211 44.4333 35.3914C44.349 37.2617 44.4468 39.0953 44.7265 40.8921C45.0063 42.689 45.4864 43.9508 46.1669 44.6774C46.6626 45.172 47.2353 45.37 47.8852 45.2714C48.242 45.1158 48.9519 44.2874 50.0148 42.7864L50.0653 42.6577L50.1266 42.6523C51.1376 41.1147 52.3919 38.7557 53.8896 35.5753C53.3704 31.5254 53.2452 27.2649 53.5138 22.7939C54.0015 14.6785 55.5902 8.57742 58.2801 4.49071C59.8469 2.15876 61.6512 0.902924 63.6933 0.723209C65.6536 0.550682 66.9885 1.46813 67.6981 3.47556C67.9666 4.19708 68.1269 5.09372 68.179 6.16547C68.2275 7.19614 68.1871 8.15184 68.058 9.03255C67.7205 12.2499 66.7875 15.9543 65.259 20.1457C62.9857 26.1829 60.5454 30.5374 57.9383 33.2093C58.1792 35.5063 58.6031 38.015 59.2101 40.7352C61.0924 30.6755 63.8918 25.4821 67.6083 25.1551C68.5068 25.076 69.2092 25.3453 69.7156 25.9631C70.1741 26.5024 70.4426 27.2239 70.5212 28.1277C70.6605 29.7299 70.2575 31.4834 69.312 33.3881C68.3629 35.2517 67.0515 36.7333 65.3775 37.8327C65.8962 38.1183 66.3235 38.536 66.6594 39.086C67.0432 39.7146 67.6112 40.8031 68.3631 42.3514C68.7169 43.1068 68.9729 43.6845 69.1312 44.0846C69.3267 44.44 69.5942 44.9132 69.9337 45.5043C70.2696 46.0543 70.5539 46.4846 70.7867 46.7953C71.0567 47.0613 71.3658 47.3032 71.714 47.521C72.0622 47.7387 72.3996 47.8332 72.7263 47.8044C73.0903 47.731 73.8569 46.6079 75.0259 44.4351C76.1258 42.2713 77.2856 39.4814 78.5051 36.0655C78.4915 35.9407 78.4791 35.8146 78.468 35.6871C78.1607 32.154 78.7363 29.309 80.1949 27.1521C81.6942 24.9917 83.5466 23.8144 85.752 23.6204C86.773 23.5305 87.6521 23.7015 88.3892 24.1334C89.2561 24.6367 89.7359 25.4224 89.8288 26.4906L89.8342 26.5522C89.9398 28.2402 89.3014 29.8902 87.919 31.5022C86.5738 33.0695 85.0402 34.3636 83.3183 35.3844C83.3346 36.0454 83.3749 36.7456 83.4392 37.4851C83.6393 39.7857 84.306 41.3002 85.4393 42.0284C86.2689 42.5763 87.2057 42.7009 88.2497 42.402C88.9562 42.0086 89.7079 41.425 90.5048 40.6511C91.2982 39.8361 91.9912 39.0507 92.5839 38.2948C93.173 37.4978 93.8277 36.5087 94.5481 35.3276C95.3057 34.1018 95.8619 33.1628 96.2167 32.5106C96.6123 31.8548 97.1126 30.9828 97.7176 29.8946C97.9269 29.4622 98.2483 29.3719 98.6817 29.6235C99.1115 29.8341 99.2218 30.1555 99.0125 30.5879C98.1982 32.1085 97.5223 33.3271 96.9847 34.2438C96.4436 35.1194 95.701 36.2817 94.7571 37.7309C93.8132 39.1801 92.8496 40.4034 91.8663 41.4006C90.9203 42.3532 89.9565 43.1004 88.9748 43.6422L88.7405 43.787C87.9895 44.1429 87.2465 44.3532 86.5114 44.4179C84.7552 44.5724 83.0297 43.8963 81.3349 42.3896ZM62.4626 5.73712C63.4632 3.99316 64.4332 3.07984 65.3725 2.99717C65.5359 2.98279 65.686 3.05238 65.8228 3.20593C66.3221 3.74155 66.6209 4.81228 66.7195 6.41812C66.7429 7.16121 66.7087 7.95077 66.6168 8.78681C66.6204 8.82789 66.6035 8.87077 66.5663 8.91545L66.577 9.0387C66.2288 12.1328 65.3224 15.6692 63.8577 19.6481C62.0259 24.6114 60.0143 28.4521 57.8226 31.1703C57.6292 27.9997 57.7349 24.72 58.1398 21.3312C58.5411 17.9012 59.1024 14.8919 59.8238 12.3032C60.5824 9.66977 61.462 7.48108 62.4626 5.73712ZM65.716 33.2078C64.8752 34.8963 63.4562 36.3252 61.4591 37.4945C61.9181 35.674 62.3985 34.1001 62.9003 32.7726C63.4394 31.4004 63.9849 30.3382 64.5368 29.5858C65.0887 28.8335 65.6096 28.4358 66.0997 28.3926C66.3039 28.3747 66.4647 28.5675 66.5821 28.9711C66.8455 30.1071 66.5568 31.5193 65.716 33.2078ZM39.8311 36.4174C39.7857 34.4757 39.8717 32.6259 40.0892 30.8681C39.9932 30.7109 39.8991 30.5743 39.8067 30.4583C39.6699 30.3047 39.5126 30.153 39.335 30.003C38.9939 29.8674 38.5633 29.8846 38.0431 30.0546C36.4897 30.6467 35.037 32.1614 33.6852 34.5986C32.3706 36.9912 31.833 39.5637 32.0724 42.3163C32.1975 43.7542 32.4999 44.866 32.9798 45.6517C33.4969 46.3928 33.9801 46.7435 34.4294 46.704C35.042 46.6501 35.6668 46.2639 36.3039 45.5455C36.9375 44.7859 37.4582 43.9122 37.8661 42.9241L37.8607 42.8625C38.4815 41.4831 39.1082 39.4616 39.7407 36.7979L39.7247 36.613C39.7584 36.5273 39.7938 36.462 39.8311 36.4174ZM86.2995 26.3665C84.6878 27.7089 83.7239 30.112 83.4079 33.5758C84.8067 32.6247 85.987 31.5273 86.9488 30.2835C87.9514 29.0361 88.4231 27.8355 88.3639 26.6816C88.3211 26.1886 88.1105 25.8966 87.7322 25.8057C87.3539 25.7148 86.8763 25.9018 86.2995 26.3665Z" fill="#F4F4F2"/>
<path fill-rule="evenodd" clip-rule="evenodd" d="M163.942 39.6686C163.931 39.5334 163.921 39.3978 163.914 39.2616C163.438 40.1366 163.041 40.9185 162.72 41.6075C162.374 42.4378 161.889 43.5961 161.265 45.0824C160.572 46.7431 160.068 47.9241 159.752 48.6255L159.696 48.6936C157.802 52.9018 155.879 55.0918 153.927 55.2636C152.598 55.3805 151.353 54.5428 150.193 52.7505C149.029 50.9164 148.301 48.3282 148.011 44.9859C147.775 42.2703 147.64 36.1567 147.608 26.6453C147.584 21.5535 147.533 18.3164 147.454 16.934C147.267 11.8986 146.585 8.86444 145.407 7.83144C145.136 7.6027 144.835 7.50295 144.502 7.5322C143.879 7.58702 143.031 8.90357 141.958 11.4818L141.901 11.55C140.857 14.4625 139.921 18.3758 139.093 23.2901C138.056 29.654 137.2 38.5701 136.523 50.0384C136.391 52.3655 136.284 53.7852 136.203 54.2975L136.219 54.4855C135.98 56.0642 135.341 56.8993 134.303 56.9906C133.68 57.0455 133.161 56.8595 132.748 56.4329C132.112 55.8574 131.827 54.7458 131.893 53.0981C131.916 51.9174 131.841 48.8928 131.669 44.0245C131.538 39.1526 131.23 33.4542 130.747 26.9294C130.259 20.3628 129.512 15.3768 128.504 11.9713C128.314 11.2302 128.05 10.6009 127.712 10.0834C127.374 9.56585 126.985 9.17913 126.544 8.92323C126.103 8.66733 125.655 8.55948 125.198 8.59969C123.578 8.74224 122.173 9.43419 120.984 10.6755C119.836 11.9132 119.059 13.5603 118.652 15.6169L118.657 15.6796C118.299 18.7842 118.529 21.9004 119.345 25.0281C120.199 28.1103 121.295 30.3714 122.634 31.8112C122.957 32.1616 122.926 32.5222 122.54 32.893C122.191 33.2183 121.855 33.2058 121.532 32.8554C120.423 31.648 119.432 29.8828 118.56 27.5599C117.727 25.1915 117.207 22.5851 117.002 19.7404C116.838 16.8922 117.163 14.3797 117.978 12.203C119.448 8.41109 122.218 6.33603 126.288 5.97782C127.617 5.86085 128.825 6.28074 129.913 7.23749C131.001 8.19423 131.809 9.5544 132.339 11.318C133.929 16.6088 135.09 25.621 135.821 38.3547C136.312 32.4597 136.915 27.3549 137.628 23.0402C138.445 18.0006 139.413 13.9791 140.533 10.9758L140.59 10.9076L140.585 10.845L140.641 10.7768C142.245 6.59423 144.167 4.40427 146.41 4.20689C147.365 4.12282 148.185 4.40849 148.87 5.0639C149.642 5.75378 150.259 6.83612 150.722 8.31092C151.181 9.74394 151.501 11.7365 151.681 14.2887C151.861 16.8409 151.969 19.0416 152.004 20.8908C152.04 22.74 152.046 25.4549 152.022 29.0353C152.034 31.0971 152.027 32.6975 152 33.8365C152.012 34.9301 152.037 36.4223 152.076 38.3134C152.153 40.1589 152.24 41.6457 152.338 42.7738C152.433 43.86 152.557 45.0489 152.711 46.3404C152.903 47.5864 153.138 48.5972 153.414 49.3727C153.733 50.1446 154.095 50.7021 154.501 51.0452C154.821 51.3539 155.21 51.4881 155.666 51.4479C156.414 51.3821 157.335 50.1854 158.43 47.8578C158.746 47.1564 159.235 46.0399 159.896 44.5082C160.38 43.329 160.762 42.4323 161.044 41.8182C161.321 41.1622 161.69 40.351 162.15 39.3843C162.61 38.4177 163.083 37.5972 163.568 36.923C163.753 36.6485 163.942 36.3859 164.135 36.1354C164.24 35.5764 164.38 35.0101 164.555 34.4366C165.149 32.6161 166.159 30.9907 167.583 29.5603C169.045 28.0845 170.752 27.2606 172.704 27.0888C173.41 27.0267 174.089 27.1353 174.741 27.4147C175.431 27.6487 176.096 28.0743 176.735 28.6916C177.375 29.3089 177.923 30.0816 178.381 31.0096L178.386 31.0723L178.454 31.1294L178.459 31.1921C179.036 32.5306 179.403 34.0981 179.559 35.8946C179.737 37.9418 179.585 39.8074 179.104 41.4916C180.65 40.9767 182.271 39.8869 183.967 38.222C185.515 36.6959 186.749 35.1974 187.668 33.7266C187.65 33.5406 187.633 33.3533 187.617 33.1647C187.184 28.193 187.21 23.4336 187.693 18.8865C184.387 18.8828 181.569 17.7626 179.24 15.5259C178.875 15.1791 178.865 14.8221 179.21 14.455C179.554 14.0879 179.909 14.0777 180.274 14.4245C182.374 16.4288 184.888 17.4284 187.817 17.4232C188.605 11.0812 190.072 5.81607 192.218 1.62776C192.538 0.968182 192.979 0.508354 193.542 0.248287C194.102 -0.0535603 194.644 -0.0801853 195.167 0.168406C195.646 0.378871 195.973 0.771074 196.149 1.34501C196.321 1.87717 196.263 2.66105 195.977 3.69663C195.87 3.91649 195.716 4.30896 195.514 4.87401C193.949 9.01114 192.895 13.019 192.354 16.8977C195.239 16.3911 199.126 15.1229 204.013 13.093C206.114 12.2345 207.753 11.5851 208.928 11.1449C210.145 10.701 211.798 10.2188 213.887 9.69811C215.973 9.13568 218.033 8.76492 220.068 8.58582C222.435 8.37747 224.759 8.636 227.041 9.36141C229.36 10.0414 230.962 11.1423 231.848 12.6641C232.092 13.0636 231.996 13.4088 231.561 13.6997C231.122 13.9488 230.779 13.8527 230.532 13.4114C229.796 12.1711 228.399 11.2626 226.34 10.6861C224.322 10.1058 222.275 9.9071 220.199 10.0899C218.247 10.2617 216.247 10.606 214.199 11.123C212.193 11.6364 210.582 12.115 209.365 12.5589C208.19 12.9991 206.593 13.6448 204.574 14.496C199.441 16.5896 195.308 17.9006 192.173 18.4291C191.709 22.7219 191.688 27.2914 192.11 32.1378C192.241 33.6418 192.406 35.0587 192.605 36.3883C192.801 37.6761 193.025 38.8141 193.279 39.8021C193.532 40.7902 193.78 41.7156 194.022 42.5783C194.303 43.3956 194.574 44.1085 194.836 44.7169C195.136 45.2799 195.412 45.8029 195.663 46.286C195.952 46.7236 196.213 47.0795 196.446 47.3537C196.721 47.6242 196.951 47.8566 197.135 48.0509C197.357 48.1997 197.534 48.3104 197.666 48.383C197.839 48.452 197.968 48.4828 198.051 48.4755C198.466 48.4389 198.928 47.4931 199.436 45.6382C199.723 44.6026 200.113 42.8421 200.609 40.3568C200.807 39.3254 200.999 38.3727 201.185 37.4987C201.115 37.0871 201.061 36.6594 201.022 36.2158C200.71 32.6228 201.295 29.7296 202.779 27.5363C204.303 25.3392 206.187 24.142 208.43 23.9447C209.468 23.8533 210.362 24.0272 211.112 24.4664C211.993 24.9782 212.481 25.7772 212.576 26.8635L212.581 26.9261C212.689 28.6427 212.039 30.3207 210.634 31.9599C209.266 33.5538 207.706 34.8698 205.955 35.908C205.972 36.5801 206.013 37.2922 206.078 38.0442C206.281 40.3838 206.959 41.9239 208.112 42.6644C208.956 43.2217 209.908 43.3483 210.97 43.0444C211.688 42.6444 212.453 42.0509 213.263 41.2639C214.07 40.4351 214.775 39.6363 215.377 38.8676C215.977 38.0571 216.642 37.0513 217.375 35.8502C218.145 34.6036 218.711 33.6487 219.072 32.9855C219.272 32.6532 219.499 32.2663 219.752 31.8248C219.607 31.2819 219.509 30.7103 219.456 30.11C219.315 28.4806 219.926 26.8481 221.29 25.2125C222.693 23.5314 224.557 22.5885 226.882 22.3838C228.419 22.2486 229.794 22.4222 231.008 22.9048C232.218 23.3456 233.137 24.0436 233.764 24.9987C233.768 25.0405 233.792 25.0805 233.837 25.1186L233.875 25.5573L233.818 25.6254L233.824 25.6881L233.767 25.7562L233.772 25.8189L233.71 25.8244L233.716 25.8871L233.602 26.0234L233.477 26.0343L233.42 26.1025L232.984 26.1409C232.943 26.1445 232.92 26.1254 232.917 26.0837L232.792 26.0946L232.787 26.032L232.724 26.0374C231.391 25.1444 230.164 24.7472 229.042 24.8459C227.381 24.9921 226.135 25.5859 225.305 26.6272C224.513 27.6231 224.157 28.5806 224.237 29.4998C224.299 30.21 224.547 30.9038 224.983 31.5812C225.456 32.2131 225.898 32.7215 226.308 33.1064C226.76 33.4876 227.432 33.9968 228.324 34.6339C229.397 35.4235 230.184 36.0489 230.685 36.5101C234.835 33.7031 238.158 31.011 240.654 28.4338C240.999 28.0667 241.354 28.0565 241.718 28.4033C242.083 28.75 242.094 29.107 241.749 29.4741C239.177 32.1422 235.835 34.857 231.723 37.6185C232.662 38.7988 233.19 40.0574 233.307 41.3943C233.365 42.0628 233.323 42.7821 233.18 43.5524C233.035 44.281 232.745 45.0432 232.312 45.839C231.917 46.5895 231.262 47.2365 230.347 47.7802C229.435 48.3656 228.356 48.7131 227.11 48.8228C226.03 48.9178 225.125 48.6186 224.396 47.925C223.662 47.1897 223.25 46.2998 223.159 45.2553C223.057 44.0855 223.342 43.029 224.013 42.0859C224.681 41.101 225.722 40.0831 227.138 39.0324C226.686 38.6512 225.952 38.1475 224.935 37.5213C224.136 37.0022 223.515 36.5938 223.07 36.2961C222.622 35.9567 222.078 35.4783 221.439 34.861C221.071 34.4789 220.756 34.0683 220.494 33.6291C220.262 34.0414 220.048 34.4144 219.853 34.748C219.303 35.6384 218.547 36.8205 217.587 38.2942C216.628 39.768 215.648 41.0119 214.648 42.0261C213.686 42.9948 212.706 43.7547 211.707 44.3056L211.469 44.4529C210.705 44.8148 209.95 45.0286 209.202 45.0944C207.416 45.2516 205.662 44.564 203.938 43.0318C203.179 42.3384 202.564 41.4949 202.094 40.5015L202.074 40.6067C201.579 43.092 201.209 44.8507 200.964 45.8826L200.969 45.9453L200.907 45.9508C200.004 49.5244 198.764 51.3807 197.185 51.5196C195.067 51.706 193.072 50.1766 191.199 46.9314C189.632 44.1849 188.54 40.5293 187.925 35.9648C186.985 37.1717 185.834 38.4145 184.472 39.6931C182.385 41.687 180.394 42.8516 178.498 43.1868C178.042 44.1952 177.45 45.0893 176.723 45.869C175.306 47.3829 173.663 48.2222 171.794 48.3866L170.86 48.4689C170.565 48.4527 170.207 48.4211 169.784 48.3741C169.358 48.2853 168.949 48.1529 168.557 47.9769C168.165 47.8009 167.749 47.585 167.308 47.3291C166.905 47.0277 166.518 46.6619 166.145 46.2316C165.811 45.7558 165.494 45.2364 165.194 44.6735C164.89 44.0687 164.638 43.3331 164.437 42.4668C164.194 41.604 164.03 40.6713 163.942 39.6686ZM177.966 39.95C178.193 38.7092 178.246 37.3994 178.126 36.0207C177.981 34.3495 177.627 32.9283 177.065 31.7569C176.322 30.433 175.452 29.8149 174.455 29.9027C173.417 29.994 172.449 30.416 171.552 31.1685C170.655 31.9211 169.934 33.0159 169.39 34.4531C168.883 35.8449 168.702 37.3763 168.848 39.0475C169.051 41.3871 169.502 43.1998 170.199 44.4855C170.939 45.7676 171.848 46.3612 172.928 46.2661C173.717 46.1967 174.462 45.8575 175.162 45.2486C175.397 45.0595 175.609 44.8514 175.798 44.6242C175.84 44.6206 175.859 44.5979 175.855 44.5561L175.912 44.4879C176.291 44.0336 176.627 43.562 176.919 43.0732C176.523 42.8554 176.285 42.5186 176.203 42.0627C176.122 41.6068 176.231 41.1762 176.53 40.7709C176.83 40.3657 177.225 40.0994 177.716 39.9719C177.796 39.9228 177.879 39.9155 177.966 39.95ZM208.987 26.7373C207.348 28.1024 206.367 30.5462 206.046 34.0687C207.469 33.1015 208.669 31.9855 209.647 30.7207C210.667 29.4522 211.146 28.2312 211.086 27.0577C211.042 26.5564 210.828 26.2595 210.444 26.167C210.059 26.0746 209.573 26.2647 208.987 26.7373ZM228.612 46.6067C228.226 46.9775 227.744 47.2093 227.166 47.3023L226.979 47.3187C226.315 47.3772 225.776 47.1931 225.362 46.7664C224.945 46.298 224.709 45.7504 224.654 45.1238C224.578 44.2464 224.82 43.4252 225.381 42.6601C225.981 41.8496 226.931 40.9872 228.232 40.0727C229.116 41.0895 229.621 42.3291 229.749 43.7913C229.792 44.2927 229.711 44.805 229.506 45.3283C229.338 45.8061 229.04 46.2322 228.612 46.6067Z" fill="#F4F4F2"/>
</svg>
