<svg width="150" height="96" viewBox="0 0 150 96" fill="none" xmlns="http://www.w3.org/2000/svg">
<path d="M39.8679 3.09132C40.1446 2.7985 40.4142 2.8085 40.6767 3.12132C40.9696 3.3979 40.9763 3.66594 40.6967 3.92544C39.9246 4.69811 38.8697 5.31082 37.5321 5.76358C36.2279 6.21343 34.5591 6.52727 32.5256 6.7051C30.5255 6.88003 28.8558 6.99247 27.5166 7.04244C26.1744 7.05909 24.3097 7.05428 21.9225 7.02801C19.6716 7.0234 18.0446 7.04817 17.0416 7.10231C16.1924 10.0643 15.5246 13.5644 15.0383 17.6027C14.5491 21.6077 14.4561 25.343 14.7594 28.8086C14.9927 31.4744 15.4361 33.8533 16.0894 35.9451C16.7761 38.0341 17.4269 39.5217 18.042 40.4081C18.657 41.2945 19.1645 41.7202 19.5645 41.6853C19.7616 41.6344 19.9839 41.296 20.2314 40.67C20.5094 40.0077 20.7423 39.215 20.9303 38.292C21.1269 37.4689 21.3568 36.2568 21.6197 34.6556C21.9289 32.8154 22.1804 31.467 22.3742 30.6106C22.6013 29.7513 22.8821 29.1224 23.2167 28.7237C23.4934 28.4309 23.7768 28.4061 24.0668 28.6494C24.3901 28.8897 24.4149 29.173 24.1412 29.4991C23.7761 29.934 23.3278 31.7193 22.796 34.8549C22.5706 36.117 22.4022 37.0719 22.291 37.7197C22.2418 37.9254 22.1926 38.1312 22.1434 38.337C21.9093 39.4991 21.659 40.478 21.3927 41.2735C21.1265 42.0691 20.75 42.7568 20.2633 43.3366C19.807 43.8802 19.2789 44.1782 18.6788 44.2307C17.0787 44.3706 15.5366 43.0617 14.0524 40.3038C12.5652 37.5125 11.6175 33.7843 11.2092 29.1191C10.658 22.8211 11.4021 15.5871 13.4415 7.41717C9.30955 8.18147 6.12686 10.0044 3.89338 12.886C1.54697 16.0125 0.739382 19.6424 1.47062 23.7757C1.51854 23.9394 1.48166 24.0937 1.35999 24.2386C1.27165 24.3807 1.14414 24.459 0.977465 24.4736C0.977465 24.4736 0.960798 24.475 0.927462 24.4779C0.594111 24.5071 0.37806 24.3413 0.279308 23.9806C-0.514434 19.517 0.383575 15.577 2.97334 12.1606C5.47476 8.8862 9.07914 6.89207 13.7865 6.17818C14.0107 5.28555 14.2284 4.511 14.4397 3.85454C14.6784 3.12852 15.1949 2.69721 15.9891 2.56059C16.7167 2.42981 17.2857 2.5983 17.6961 3.06608C18.037 3.50636 18.0988 4.02141 17.8817 4.61122C17.7138 4.99527 17.5654 5.41118 17.4367 5.85895C18.3092 5.8498 19.821 5.8519 21.9719 5.86525C23.7866 5.87443 25.1969 5.86862 26.2028 5.8478C27.2087 5.82699 28.5479 5.77702 30.2205 5.69789C31.9264 5.61586 33.2917 5.47967 34.3163 5.28932C35.341 5.09897 36.375 4.82386 37.4184 4.46399C38.4951 4.1012 39.3116 3.64364 39.8679 3.09132Z" fill="#F4F4F2"/>
<path d="M44.7115 26.7431C44.8824 26.3924 45.1432 26.3025 45.4941 26.4732C45.8782 26.6411 45.9849 26.9004 45.8141 27.2511L45.5165 27.8815C44.0702 30.9293 42.8734 33.183 41.9263 34.6425C41.8958 34.6788 41.8821 34.7135 41.885 34.7469L41.7894 34.8056C41.7894 34.8056 41.7908 34.8222 41.7938 34.8556C41.7938 34.8556 41.7771 34.857 41.7438 34.8599C40.2578 37.0717 38.8648 38.2345 37.5647 38.3482C36.3647 38.4531 35.3542 38.0378 34.5333 37.1023C33.7096 36.1334 33.1239 34.6233 32.7764 32.5718C32.5435 33.3645 32.288 34.092 32.0101 34.7542C30.7796 37.5817 29.1643 39.0829 27.1642 39.2578C26.0308 39.3569 24.9884 38.9612 24.0371 38.0706C23.1192 37.1771 22.5713 35.714 22.3934 33.6813C22.1571 30.9822 22.8399 28.4209 24.4417 25.9975C26.0768 23.5712 27.8277 22.2764 29.6945 22.1132C30.9946 21.9995 32.0223 22.2286 32.7778 22.8005C32.8474 22.828 32.9184 22.8721 32.9909 22.933C32.9909 22.933 33.0076 22.9315 33.0409 22.9286C33.0813 22.6228 33.2276 22.375 33.4797 22.1851C33.7622 21.9589 34.052 21.816 34.3491 21.7565C34.6796 21.694 34.9977 21.6829 35.3036 21.7234C35.7819 21.8158 36.1553 22.0518 36.4236 22.4313C36.7253 22.8078 36.8176 23.2866 36.7005 23.8677C36.4809 25.1964 36.3367 26.6193 36.2679 28.1364C36.1991 29.6534 36.2789 31.1406 36.5072 32.5981C36.7356 34.0556 37.1275 35.079 37.6829 35.6684C38.0875 36.0695 38.555 36.2301 39.0855 36.1501C39.3767 36.0239 39.9562 35.3521 40.8237 34.1345L40.865 34.0302L40.915 34.0258C41.8346 32.6358 43.001 30.4184 44.414 27.3736L44.7115 26.7431ZM32.5115 28.9686C32.4744 27.3936 32.5446 25.8933 32.7221 24.4675C32.6438 24.34 32.5669 24.2292 32.4915 24.1351C32.3798 24.0105 32.2515 23.8874 32.1065 23.7658C31.8281 23.6558 31.4767 23.6698 31.0521 23.8077C29.7841 24.2879 28.5984 25.5165 27.4949 27.4933C26.422 29.434 25.9832 31.5206 26.1786 33.7532C26.2806 34.9195 26.5275 35.8213 26.9192 36.4587C27.3413 37.0597 27.7357 37.3442 28.1024 37.3121C28.6024 37.2684 29.1124 36.9552 29.6325 36.3725C30.1496 35.7564 30.5746 35.0477 30.9076 34.2463C30.9076 34.2463 30.9061 34.2296 30.9032 34.1963C31.4099 33.0775 31.9214 31.4378 32.4377 29.2772C32.4348 29.2439 32.4304 29.1939 32.4246 29.1273C32.4521 29.0577 32.481 29.0048 32.5115 28.9686Z" fill="#F4F4F2"/>
<path d="M65.364 25.0377C65.4652 24.6595 65.7065 24.5376 66.0878 24.6722C66.4661 24.7734 66.588 25.0146 66.4534 25.3957C66.4317 25.5319 66.3659 25.7391 66.2559 26.0174C64.8478 30.2706 63.5415 33.5748 62.3368 35.9299C60.7296 39.0589 59.1926 40.6875 57.7259 40.8158C57.3259 40.8508 56.9127 40.7358 56.4864 40.4709C56.0602 40.206 55.681 39.9033 55.3489 39.563C55.0501 39.2198 54.6868 38.7143 54.2588 38.0466C53.8613 37.3427 53.5436 36.7828 53.3057 36.3671C53.0648 35.9181 52.7398 35.275 52.3307 34.4377C51.8823 33.5367 51.5783 32.9421 51.4188 32.6539C50.9762 31.8196 50.4216 31.4316 49.7549 31.4899C49.4991 32.7882 49.2505 34.1699 49.0092 35.6348C49.0413 36.0014 48.9219 36.3644 48.6511 36.7238C48.286 37.1587 47.8716 37.4132 47.4079 37.4873L47.3579 37.4917C46.5578 37.5617 45.993 37.057 45.6634 35.9778C43.943 30.5207 43.2817 24.5009 43.6798 17.9184C44.0778 11.3359 45.3746 6.38725 47.5701 3.07248C48.849 1.181 50.3218 0.162382 51.9885 0.0166125C53.5886 -0.123326 54.6782 0.620829 55.2574 2.24908C55.4766 2.83431 55.6074 3.56159 55.6499 4.4309C55.6895 5.26689 55.6566 6.04206 55.5511 6.75642C55.2757 9.36601 54.5141 12.3707 53.2665 15.7704C51.411 20.6672 49.4192 24.1992 47.2911 26.3664C47.4878 28.2296 47.8338 30.2644 48.3292 32.4708C49.8656 24.3113 52.1506 20.0989 55.1841 19.8336C55.9175 19.7694 56.4908 19.9879 56.9042 20.489C57.2784 20.9264 57.4975 21.5116 57.5617 22.2447C57.6754 23.5443 57.3464 24.9666 56.5747 26.5115C55.8001 28.0231 54.7296 29.2248 53.3633 30.1166C53.7866 30.3482 54.1354 30.687 54.4096 31.1332C54.7229 31.643 55.1865 32.5258 55.8002 33.7817C56.089 34.3944 56.2979 34.863 56.4271 35.1875C56.5867 35.4758 56.805 35.8596 57.0821 36.3391C57.3563 36.7852 57.5884 37.1342 57.7784 37.3862C57.9988 37.602 58.2511 37.7982 58.5353 37.9748C58.8195 38.1514 59.0949 38.2281 59.3616 38.2047C59.6587 38.1452 60.2844 37.2342 61.2386 35.4719C62.4433 33.1168 63.7359 29.8474 65.1164 25.6637C65.2265 25.3855 65.309 25.1768 65.364 25.0377ZM53.3592 1.86105C52.5925 1.9281 51.8008 2.6689 50.984 4.08345C50.1673 5.498 49.4493 7.27327 48.8301 9.40926C48.2413 11.509 47.7831 13.9499 47.4556 16.732C47.1251 19.4807 47.0388 22.1409 47.1967 24.7126C48.9856 22.5079 50.6276 19.3926 52.1227 15.3668C53.3183 12.1395 54.0581 9.27103 54.3423 6.7614C54.3394 6.72808 54.3365 6.69476 54.3336 6.66143C54.364 6.6252 54.3777 6.59042 54.3748 6.55709C54.4498 5.87897 54.4778 5.23855 54.4586 4.63582C54.3782 3.33331 54.1342 2.46483 53.7267 2.03038C53.615 1.90583 53.4925 1.84939 53.3592 1.86105ZM50.165 29.8423C51.7951 28.8938 52.9533 27.7348 53.6396 26.3653C54.3259 24.9957 54.5615 23.8502 54.3465 22.9288C54.2507 22.6014 54.1194 22.445 53.9528 22.4596C53.5527 22.4946 53.1275 22.8172 52.677 23.4274C52.2266 24.0376 51.7814 24.8992 51.3413 26.0122C50.9317 27.089 50.5396 28.3656 50.165 29.8423Z" fill="#F4F4F2"/>
<path d="M79.7603 23.6779C79.9311 23.3272 80.1935 23.2539 80.5472 23.458C80.8981 23.6288 80.9881 23.8895 80.8172 24.2402C80.1526 25.4736 79.6009 26.462 79.1621 27.2055C78.7204 27.9157 78.1143 28.8585 77.3438 30.034C76.5734 31.2095 75.7869 32.2016 74.9843 33.0105C74.2122 33.7832 73.4255 34.3893 72.6242 34.8287C72.5604 34.8679 72.4967 34.907 72.4329 34.9462C71.8199 35.2348 71.2135 35.4054 70.6134 35.4579C69.18 35.5832 67.7716 35.0348 66.3882 33.8127C65.0382 32.5876 64.2581 30.7755 64.0482 28.3762C63.7973 25.5105 64.2672 23.2029 65.4577 21.4534C66.6815 19.7011 68.1935 18.7462 69.9936 18.5888C70.827 18.5159 71.5445 18.6546 72.1462 19.0049C72.8537 19.4131 73.2454 20.0504 73.3212 20.9168L73.3256 20.9668C73.4118 22.336 72.8908 23.6743 71.7624 24.9818C70.6644 26.253 69.4126 27.3027 68.0071 28.1307C68.0204 28.6668 68.0534 29.2348 68.1059 29.8346C68.2692 31.7007 68.8134 32.929 69.7384 33.5197C70.4155 33.9642 71.1801 34.0652 72.0323 33.8228C72.609 33.5037 73.2225 33.0303 73.873 32.4026C74.5205 31.7416 75.0862 31.1045 75.57 30.4913C76.0509 29.8449 76.5853 29.0426 77.1732 28.0846C77.7916 27.0903 78.2456 26.3287 78.5352 25.7997C78.8581 25.2678 79.2665 24.5605 79.7603 23.6779ZM70.4405 20.8162C69.125 21.905 68.3382 23.8542 68.0803 26.6637C69.222 25.8923 70.1854 25.0022 70.9704 23.9933C71.7888 22.9816 72.1739 22.0077 72.1255 21.0717C72.0905 20.6719 71.9187 20.4351 71.6099 20.3613C71.3011 20.2876 70.9113 20.4392 70.4405 20.8162Z" fill="#F4F4F2"/>
<path d="M88.2752 78.1703C88.5548 77.9108 88.8244 77.9208 89.084 78.2003C89.3769 78.4769 89.3851 78.7616 89.1084 79.0544C88.6129 79.5342 88.1016 80.2169 87.5745 81.1025C87.0807 81.9851 86.6782 82.759 86.3669 83.4242C86.089 84.0865 85.6996 85.0104 85.1987 86.1959C84.6428 87.5204 84.2382 88.4624 83.9849 89.0218C83.9544 89.0581 83.9392 89.0762 83.9392 89.0762C82.4191 92.4326 80.8757 94.1793 79.3089 94.3164C78.2422 94.4097 77.2432 93.7415 76.3119 92.312C75.3777 90.8491 74.794 88.7847 74.5606 86.1189C74.3711 83.9529 74.2634 79.0767 74.2377 71.4903C74.2181 67.4291 74.1769 64.8472 74.114 63.7446C73.964 59.7284 73.4163 57.3083 72.4709 56.4844C72.2533 56.3019 72.0113 56.2224 71.7446 56.2457C71.2445 56.2894 70.5639 57.3395 69.7026 59.3959C69.6721 59.4322 69.6569 59.4503 69.6569 59.4503C68.8189 61.7733 68.0676 64.8946 67.4029 68.8142C66.5708 73.8901 65.8831 81.0016 65.3401 90.1488C65.2338 92.0048 65.1482 93.1372 65.0832 93.5458C65.0861 93.5791 65.0875 93.5958 65.0875 93.5958C65.0934 93.6625 65.0963 93.6958 65.0963 93.6958C64.9042 94.955 64.3914 95.621 63.5581 95.6939C63.058 95.7376 62.642 95.5893 62.3099 95.249C61.7994 94.79 61.5707 93.9034 61.6236 92.5892C61.642 91.6474 61.582 89.235 61.4437 85.3521C61.3387 81.4662 61.0921 76.9212 60.7038 71.717C60.3126 66.4794 59.7126 62.5026 58.9038 59.7863C58.7513 59.1953 58.5395 58.6933 58.2682 58.2805C57.9969 57.8677 57.6844 57.5593 57.3307 57.3552C56.9769 57.1511 56.6167 57.0651 56.25 57.0971C54.9499 57.2108 53.8226 57.7627 52.8679 58.7528C51.9466 59.74 51.3226 61.0538 50.9959 62.6941C50.9959 62.6941 50.9973 62.7107 51.0003 62.7441C50.7131 65.2204 50.8971 67.7058 51.5521 70.2005C52.2375 72.6589 53.1175 74.4623 54.1922 75.6107C54.4518 75.8902 54.4265 76.1778 54.1165 76.4735C53.8369 76.733 53.5673 76.723 53.3077 76.4435C52.4173 75.4805 51.6223 74.0726 50.9227 72.2198C50.2535 70.3308 49.8364 68.2519 49.6714 65.983C49.5398 63.7112 49.801 61.7073 50.4553 59.9712C51.6349 56.9467 53.8582 55.2916 57.1251 55.0059C58.1918 54.9126 59.1616 55.2475 60.0346 56.0106C60.9075 56.7737 61.5567 57.8586 61.9821 59.2653C63.2584 63.4852 64.1898 70.6734 64.7764 80.8298C65.1711 76.1279 65.6545 72.0563 66.2266 68.6149C66.8826 64.5953 67.6599 61.3878 68.5587 58.9923C68.5587 58.9923 68.574 58.9742 68.6044 58.9379C68.6044 58.9379 68.6029 58.9213 68.6 58.888C68.6304 58.8517 68.6456 58.8336 68.6456 58.8336C69.9324 55.4976 71.4758 53.7509 73.2759 53.5934C74.0426 53.5264 74.7008 53.7542 75.2504 54.277C75.8696 54.8272 76.365 55.6905 76.7367 56.8668C77.1055 58.0098 77.3621 59.5991 77.5067 61.6347C77.6513 63.6703 77.7377 65.4256 77.766 66.9006C77.7943 68.3755 77.7991 70.5409 77.7803 73.3966C77.7899 75.0411 77.784 76.3176 77.7628 77.2261C77.7719 78.0983 77.7921 79.2886 77.8234 80.7968C77.885 82.2689 77.9552 83.4548 78.034 84.3545C78.1098 85.2209 78.2096 86.1691 78.3333 87.1992C78.4875 88.1931 78.6756 88.9993 78.8977 89.6178C79.1531 90.2335 79.444 90.6781 79.7702 90.9518C80.0269 91.198 80.3386 91.305 80.7053 91.273C81.3053 91.2205 82.0447 90.266 82.9236 88.4095C83.1769 87.8501 83.5692 86.9596 84.1005 85.7379C84.4885 84.7973 84.7954 84.0821 85.0212 83.5923C85.2442 83.0691 85.5402 82.422 85.9094 81.651C86.2786 80.88 86.658 80.2257 87.0476 79.6879C87.4343 79.1168 87.8435 78.611 88.2752 78.1703Z" fill="#F4F4F2"/>
<path d="M106.647 76.7146C106.851 76.361 107.13 76.2862 107.484 76.4903C107.838 76.6944 107.913 76.9733 107.708 77.3269C106.828 78.7806 105.534 80.3041 103.826 81.8973C102.151 83.4877 100.553 84.4165 99.031 84.6839C98.6648 85.4883 98.1897 86.2014 97.6059 86.8232C96.4688 88.0308 95.1502 88.7001 93.6501 88.8313C93.3834 88.8546 93.1334 88.8765 92.9 88.8969C92.6638 88.884 92.376 88.8588 92.0369 88.8213C91.6948 88.7505 91.3664 88.6449 91.0518 88.5045C90.7372 88.3641 90.403 88.1919 90.0493 87.9878C89.7259 87.7474 89.4149 87.4557 89.1161 87.1124C88.8477 86.733 88.5932 86.3187 88.3523 85.8697C88.1086 85.3873 87.9061 84.8006 87.7448 84.1096C87.5502 83.4215 87.4179 82.6775 87.3479 81.8778C87.2313 80.5449 87.395 79.1539 87.8393 77.7047C88.3168 76.2527 89.1271 74.9562 90.2701 73.8154C91.4435 72.6382 92.8135 71.9812 94.3803 71.8441C94.947 71.7946 95.492 71.8812 96.0154 72.1041C96.5692 72.2907 97.1027 72.6302 97.6161 73.1225C98.1294 73.6149 98.5697 74.2311 98.9368 74.9713L98.9411 75.0213C98.9411 75.0213 98.9593 75.0365 98.9955 75.0669L98.9999 75.1169C99.4628 76.1845 99.757 77.4347 99.8824 78.8676C100.025 80.5004 99.9036 81.9885 99.5173 83.3318C100.758 82.9212 102.059 82.0519 103.421 80.724C104.813 79.3598 105.888 78.0234 106.647 76.7146ZM98.6035 82.1022C98.7856 81.1125 98.8286 80.0679 98.7323 78.9682C98.6157 77.6353 98.3317 76.5017 97.8804 75.5674C97.2842 74.5115 96.586 74.0185 95.786 74.0884C94.9526 74.1613 94.1759 74.4979 93.4558 75.0981C92.7358 75.6983 92.1572 76.5716 91.7201 77.7179C91.3134 78.828 91.1684 80.0494 91.285 81.3824C91.4483 83.2484 91.81 84.6943 92.37 85.7198C92.9634 86.7424 93.6934 87.2158 94.5601 87.14C95.1935 87.0846 95.7913 86.814 96.3534 86.3284C96.5417 86.1776 96.7119 86.0116 96.864 85.8304C96.8974 85.8275 96.9126 85.8094 96.9097 85.7761C96.9097 85.7761 96.9249 85.7579 96.9553 85.7217C97.2595 85.3593 97.5289 84.9832 97.7635 84.5933C97.4459 84.4196 97.2545 84.1509 97.1891 83.7873C97.1236 83.4237 97.2112 83.0802 97.4516 82.757C97.692 82.4338 98.0093 82.2213 98.4035 82.1197C98.4673 82.0806 98.5339 82.0747 98.6035 82.1022Z" fill="#F4F4F2"/>
<path d="M141.851 60.3389C142.047 60.6576 141.97 60.9329 141.621 61.1649C141.269 61.3636 140.994 61.2869 140.795 60.935C140.205 59.9457 139.083 59.2211 137.43 58.7612C135.811 58.2984 134.168 58.1399 132.501 58.2857C130.935 58.4227 129.33 58.6974 127.686 59.1098C126.076 59.5192 124.783 59.9009 123.806 60.255C122.863 60.6061 121.581 61.1211 119.961 61.8001C115.841 63.4699 112.523 64.5156 110.007 64.9371C109.635 68.361 109.618 72.0057 109.956 75.8712C110.061 77.0708 110.194 78.2009 110.354 79.2614C110.511 80.2886 110.691 81.1962 110.894 81.9843C111.098 82.7724 111.297 83.5105 111.491 84.1986C111.716 84.8505 111.934 85.4191 112.144 85.9043C112.385 86.3533 112.606 86.7705 112.808 87.1558C113.04 87.5049 113.25 87.7887 113.437 88.0074C113.657 88.2232 113.842 88.4086 113.989 88.5635C114.168 88.6822 114.31 88.7705 114.416 88.8284C114.555 88.8834 114.658 88.908 114.724 88.9022C115.058 88.873 115.428 88.1187 115.836 86.6391C116.066 85.8131 116.38 84.409 116.778 82.4267C117.379 79.3185 117.908 77.1065 118.364 75.7907C118.498 75.4095 118.739 75.2877 119.087 75.4252C119.466 75.5264 119.604 75.7661 119.503 76.1443C119.044 77.4268 118.528 79.5874 117.954 82.626C117.557 84.6083 117.259 86.011 117.063 86.8341L117.067 86.8841L117.017 86.8884C116.292 89.7388 115.297 91.2194 114.03 91.3301C112.33 91.4788 110.728 90.259 109.225 87.6706C107.72 85.0489 106.761 81.3888 106.35 76.6903C106.003 72.7248 106.023 68.9287 106.411 65.302C103.757 65.299 101.496 64.4055 99.6265 62.6215C99.3335 62.3449 99.3254 62.0602 99.6021 61.7674C99.8788 61.4745 100.164 61.4664 100.457 61.743C102.142 63.3417 104.16 64.139 106.511 64.1348C107.143 59.0764 108.32 54.8769 110.043 51.5363C110.3 51.0102 110.654 50.6435 111.106 50.436C111.555 50.1953 111.99 50.174 112.41 50.3723C112.795 50.5402 113.057 50.853 113.198 51.3108C113.336 51.7352 113.29 52.3605 113.06 53.1864C112.974 53.3618 112.851 53.6748 112.689 54.1255C111.432 57.4253 110.587 60.622 110.152 63.7156C112.468 63.3116 115.587 62.3001 119.51 60.681C121.197 59.9963 122.512 59.4783 123.455 59.1272C124.432 58.7732 125.759 58.3885 127.436 57.9732C129.109 57.5246 130.763 57.2289 132.396 57.0861C134.297 56.9199 136.162 57.1261 137.993 57.7047C139.854 58.247 141.14 59.1251 141.851 60.3389Z" fill="#F4F4F2"/>
<path d="M132.822 74.4255C132.993 74.0747 133.255 74.0014 133.609 74.2055C133.96 74.3763 134.05 74.6371 133.879 74.9878C133.214 76.2212 132.663 77.2096 132.224 77.9531C131.782 78.6633 131.176 79.6061 130.406 80.7816C129.635 81.957 128.849 82.9492 128.046 83.7581C127.274 84.5308 126.487 85.1368 125.686 85.5763C125.622 85.6154 125.558 85.6546 125.495 85.6937C124.882 85.9824 124.275 86.1529 123.675 86.2054C122.242 86.3308 120.833 85.7824 119.45 84.5603C118.1 83.3352 117.32 81.5231 117.11 79.1238C116.859 76.258 117.329 73.9504 118.519 72.201C119.743 70.4486 121.255 69.4937 123.055 69.3363C123.889 69.2634 124.606 69.4021 125.208 69.7525C125.915 70.1607 126.307 70.798 126.383 71.6644L126.387 71.7144C126.474 73.0835 125.952 74.4218 124.824 75.7293C123.726 77.0006 122.474 78.0502 121.069 78.8783C121.082 79.4144 121.115 79.9823 121.168 80.5822C121.331 82.4482 121.875 83.6766 122.8 84.2673C123.477 84.7117 124.242 84.8127 125.094 84.5703C125.671 84.2513 126.284 83.7779 126.935 83.1502C127.582 82.4891 128.148 81.852 128.632 81.2389C129.113 80.5924 129.647 79.7902 130.235 78.8322C130.853 77.8379 131.307 77.0763 131.597 76.5473C131.92 76.0154 132.328 75.3081 132.822 74.4255ZM123.502 71.5638C122.187 72.6526 121.4 74.6017 121.142 77.4113C122.284 76.6399 123.247 75.7497 124.032 74.7409C124.851 73.7291 125.236 72.7553 125.187 71.8193C125.152 71.4194 124.98 71.1826 124.672 71.1089C124.363 71.0352 123.973 71.1868 123.502 71.5638Z" fill="#F4F4F2"/>
<path d="M148.92 72.9169C149.196 72.6241 149.481 72.6159 149.774 72.8925C150.067 73.1691 150.075 73.4538 149.798 73.7466C147.734 75.8747 145.052 78.04 141.751 80.2426C142.505 81.184 142.929 82.1879 143.022 83.2542C143.069 83.7874 143.035 84.3612 142.921 84.9755C142.804 85.5566 142.572 86.1645 142.224 86.7993C141.907 87.3979 141.381 87.914 140.647 88.3476C139.915 88.8145 139.049 89.0917 138.049 89.1792C137.182 89.255 136.456 89.0163 135.87 88.4631C135.281 87.8766 134.95 87.1669 134.877 86.3338C134.796 85.4007 135.024 84.5581 135.563 83.8058C136.099 83.0202 136.935 82.2084 138.071 81.3704C137.708 81.0663 137.119 80.6645 136.303 80.1651C135.662 79.7511 135.163 79.4253 134.806 79.1879C134.447 78.9171 134.01 78.5356 133.497 78.0432C133.017 77.548 132.649 76.9925 132.394 76.3769C132.135 75.7279 131.973 75.0202 131.906 74.2538C131.792 72.9542 132.282 71.6521 133.378 70.3475C134.503 69.0067 135.999 68.2547 137.866 68.0914C139.099 67.9835 140.203 68.122 141.177 68.5069C142.149 68.8585 142.886 69.4152 143.389 70.1771C143.392 70.2104 143.412 70.2422 143.448 70.2727C143.451 70.306 143.457 70.3726 143.466 70.4726C143.466 70.4726 143.467 70.4892 143.47 70.5226C143.473 70.5559 143.476 70.5892 143.479 70.6225C143.479 70.6225 143.464 70.6407 143.433 70.6769C143.436 70.7102 143.437 70.7269 143.437 70.7269C143.437 70.7269 143.422 70.745 143.392 70.7812C143.392 70.7812 143.393 70.7979 143.396 70.8312L143.346 70.8356C143.349 70.8689 143.351 70.8856 143.351 70.8856C143.32 70.9218 143.305 70.9399 143.305 70.9399L143.259 70.9943C143.226 70.9972 143.193 71.0001 143.159 71.003C143.129 71.0393 143.114 71.0574 143.114 71.0574C143.047 71.0632 142.98 71.0691 142.914 71.0749C142.88 71.0778 142.847 71.0807 142.814 71.0836C142.814 71.0836 142.797 71.0851 142.764 71.088C142.73 71.0909 142.712 71.0757 142.709 71.0424C142.676 71.0453 142.643 71.0482 142.609 71.0512C142.609 71.0512 142.608 71.0345 142.605 71.0012C142.605 71.0012 142.588 71.0026 142.555 71.0055C141.485 70.2932 140.5 69.9765 139.6 70.0552C138.266 70.1718 137.267 70.6454 136.6 71.4759C135.964 72.2703 135.678 73.034 135.743 73.7671C135.792 74.3336 135.992 74.887 136.341 75.4272C136.721 75.9312 137.076 76.3367 137.405 76.6437C137.768 76.9478 138.307 77.3539 139.023 77.8621C139.885 78.4919 140.516 78.9907 140.918 79.3585C144.249 77.1197 146.916 74.9725 148.92 72.9169ZM138.094 87.9664C138.558 87.8923 138.945 87.7074 139.255 87.4116C139.598 87.113 139.837 86.7731 139.971 86.3919C140.137 85.9746 140.202 85.566 140.167 85.1661C140.064 83.9998 139.659 83.0111 138.95 82.2001C137.905 82.9295 137.142 83.6174 136.661 84.2638C136.211 84.874 136.016 85.529 136.078 86.2288C136.121 86.7287 136.311 87.1654 136.646 87.539C136.978 87.8794 137.411 88.0262 137.944 87.9795C138.011 87.9737 138.061 87.9693 138.094 87.9664Z" fill="#F4F4F2"/>
</svg>
